<svg version="1.1" id="Layer_1" xmlns="http://www.w3.org/2000/svg" xmlns:xlink="http://www.w3.org/1999/xlink" x="0px" y="0px"
	 width="300" viewBox="0 0 1000 1000" enable-background="new 0 0 1000 1000" xml:space="preserve">
<path fill="#000000" opacity="1.000000" stroke="none" 
	d="
M1001.000000,337.000000 
	C1001.000000,558.666687 1001.000000,779.833313 1001.000000,1001.000000 
	C667.666687,1001.000000 334.333344,1001.000000 1.000000,1001.000000 
	C1.000000,667.666687 1.000000,334.333344 1.000000,1.000000 
	C334.333344,1.000000 667.666687,1.000000 1001.000000,1.000000 
	C1001.000000,112.833336 1001.000000,224.666672 1001.000000,337.000000 
M877.485779,815.007935 
	C879.771240,812.058899 882.055847,809.109253 884.342407,806.161011 
	C900.485962,785.345337 914.654602,763.211121 926.866821,739.922485 
	C934.911377,724.581421 942.600830,708.922974 948.782471,692.768860 
	C956.730591,671.999084 963.619812,650.768005 969.832886,629.406372 
	C975.929321,608.445618 980.086731,586.979858 982.042786,565.155762 
	C983.268799,551.477661 985.685669,537.822266 985.774475,524.145020 
	C985.926025,500.815521 984.875854,477.468109 983.901672,454.146149 
	C983.486511,444.207275 982.723206,434.171509 980.832458,424.429230 
	C977.028687,404.829010 972.528687,385.356476 967.976501,365.910706 
	C961.590698,338.632080 951.331909,312.659424 939.583618,287.352905 
	C926.889038,260.008209 911.786316,233.996994 894.205383,209.387177 
	C876.486877,184.584869 857.275696,161.145218 834.857971,140.482574 
	C821.716064,128.369522 808.242615,116.591827 794.527100,105.131477 
	C775.899597,89.566795 755.548218,76.366135 734.220520,64.907127 
	C716.705811,55.496758 698.816101,46.541496 680.386536,39.143269 
	C660.952576,31.341864 640.955750,24.571741 620.697510,19.300894 
	C601.206299,14.229584 581.137573,11.185659 561.187195,8.136570 
	C547.143311,5.990190 532.883301,4.382784 518.701111,4.225955 
	C498.542358,4.003034 478.356140,5.119353 458.202271,6.090878 
	C448.262726,6.570017 438.231415,7.290782 428.485138,9.167114 
	C410.625671,12.605379 392.901154,16.790224 375.203217,21.011267 
	C347.951660,27.510902 322.025330,37.783115 296.772217,49.734829 
	C264.743988,64.893051 234.802460,83.432899 206.956512,105.429207 
	C189.445007,119.262047 172.925262,134.075256 157.307465,150.023254 
	C142.014755,165.639297 127.947113,182.202988 114.792267,199.627014 
	C99.896149,219.357376 86.647156,240.154099 75.157822,261.976807 
	C67.015701,277.441864 59.357029,293.290558 53.109657,309.591583 
	C45.208401,330.207977 38.310383,351.270081 32.181065,372.487030 
	C26.124454,393.452301 21.928450,414.910492 19.950468,436.734070 
	C18.785755,449.584656 16.476467,462.390198 16.198133,475.248810 
	C15.774579,494.816315 16.263412,514.430359 17.140587,533.989868 
	C17.732492,547.188293 19.218437,560.390564 21.105177,573.475647 
	C23.319551,588.832886 25.656809,604.243042 29.260485,619.314758 
	C37.030640,651.811890 47.370888,683.578674 62.144157,713.592834 
	C72.427704,734.485291 83.338387,755.207214 95.746254,774.884644 
	C115.971222,806.959167 139.690659,836.467773 167.773926,862.143433 
	C182.277817,875.403931 197.105896,888.357910 212.387619,900.707764 
	C233.128494,917.469299 255.926453,931.268982 279.477509,943.663208 
	C293.090240,950.827209 307.112885,957.442871 321.496826,962.854736 
	C341.265320,970.292664 361.282867,977.382019 381.692047,982.712952 
	C401.020172,987.761536 420.926880,990.757202 440.702332,993.873962 
	C453.919220,995.957031 467.329742,997.414001 480.693268,997.808960 
	C496.753632,998.283691 512.868713,997.615845 528.936096,996.902039 
	C539.875916,996.415894 550.847717,995.496033 561.674866,993.890503 
	C579.270691,991.281311 596.977600,988.861877 614.245972,984.726929 
	C645.323486,977.285522 675.406982,966.565491 704.308533,952.876160 
	C728.779724,941.285278 752.263245,927.815430 774.289429,912.040588 
	C786.957764,902.967529 799.133301,893.165955 811.135925,883.216248 
	C821.128296,874.933044 830.852173,866.269287 840.126831,857.193604 
	C848.724060,848.780762 856.680359,839.698547 864.700073,830.715820 
	C869.029663,825.866394 872.901367,820.608093 877.485779,815.007935 
z"/>
<path fill="#FFFFFF" opacity="1.000000" stroke="none" 
	d="
M877.232666,815.271057 
	C872.901367,820.608093 869.029663,825.866394 864.700073,830.715820 
	C856.680359,839.698547 848.724060,848.780762 840.126831,857.193604 
	C830.852173,866.269287 821.128296,874.933044 811.135925,883.216248 
	C799.133301,893.165955 786.957764,902.967529 774.289429,912.040588 
	C752.263245,927.815430 728.779724,941.285278 704.308533,952.876160 
	C675.406982,966.565491 645.323486,977.285522 614.245972,984.726929 
	C596.977600,988.861877 579.270691,991.281311 561.674866,993.890503 
	C550.847717,995.496033 539.875916,996.415894 528.936096,996.902039 
	C512.868713,997.615845 496.753632,998.283691 480.693268,997.808960 
	C467.329742,997.414001 453.919220,995.957031 440.702332,993.873962 
	C420.926880,990.757202 401.020172,987.761536 381.692047,982.712952 
	C361.282867,977.382019 341.265320,970.292664 321.496826,962.854736 
	C307.112885,957.442871 293.090240,950.827209 279.477509,943.663208 
	C255.926453,931.268982 233.128494,917.469299 212.387619,900.707764 
	C197.105896,888.357910 182.277817,875.403931 167.773926,862.143433 
	C139.690659,836.467773 115.971222,806.959167 95.746254,774.884644 
	C83.338387,755.207214 72.427704,734.485291 62.144157,713.592834 
	C47.370888,683.578674 37.030640,651.811890 29.260485,619.314758 
	C25.656809,604.243042 23.319551,588.832886 21.105177,573.475647 
	C19.218437,560.390564 17.732492,547.188293 17.140587,533.989868 
	C16.263412,514.430359 15.774579,494.816315 16.198133,475.248810 
	C16.476467,462.390198 18.785755,449.584656 19.950468,436.734070 
	C21.928450,414.910492 26.124454,393.452301 32.181065,372.487030 
	C38.310383,351.270081 45.208401,330.207977 53.109657,309.591583 
	C59.357029,293.290558 67.015701,277.441864 75.157822,261.976807 
	C86.647156,240.154099 99.896149,219.357376 114.792267,199.627014 
	C127.947113,182.202988 142.014755,165.639297 157.307465,150.023254 
	C172.925262,134.075256 189.445007,119.262047 206.956512,105.429207 
	C234.802460,83.432899 264.743988,64.893051 296.772217,49.734829 
	C322.025330,37.783115 347.951660,27.510902 375.203217,21.011267 
	C392.901154,16.790224 410.625671,12.605379 428.485138,9.167114 
	C438.231415,7.290782 448.262726,6.570017 458.202271,6.090878 
	C478.356140,5.119353 498.542358,4.003034 518.701111,4.225955 
	C532.883301,4.382784 547.143311,5.990190 561.187195,8.136570 
	C581.137573,11.185659 601.206299,14.229584 620.697510,19.300894 
	C640.955750,24.571741 660.952576,31.341864 680.386536,39.143269 
	C698.816101,46.541496 716.705811,55.496758 734.220520,64.907127 
	C755.548218,76.366135 775.899597,89.566795 794.527100,105.131477 
	C808.242615,116.591827 821.716064,128.369522 834.857971,140.482574 
	C857.275696,161.145218 876.486877,184.584869 894.205383,209.387177 
	C911.786316,233.996994 926.889038,260.008209 939.583618,287.352905 
	C951.331909,312.659424 961.590698,338.632080 967.976501,365.910706 
	C972.528687,385.356476 977.028687,404.829010 980.832458,424.429230 
	C982.723206,434.171509 983.486511,444.207275 983.901672,454.146149 
	C984.875854,477.468109 985.926025,500.815521 985.774475,524.145020 
	C985.685669,537.822266 983.268799,551.477661 982.042786,565.155762 
	C980.086731,586.979858 975.929321,608.445618 969.832886,629.406372 
	C963.619812,650.768005 956.730591,671.999084 948.782471,692.768860 
	C942.600830,708.922974 934.911377,724.581421 926.866821,739.922485 
	C914.654602,763.211121 900.485962,785.345337 884.342407,806.161011 
	C882.055847,809.109253 879.771240,812.058899 877.232666,815.271057 
M38.002457,544.216125 
	C38.669071,550.213745 39.003799,556.270813 40.064644,562.197876 
	C43.223522,579.846924 46.222260,597.543457 50.096478,615.041443 
	C57.336472,647.741150 68.828583,679.069641 83.147491,709.272644 
	C94.186745,732.557861 107.201660,754.768494 121.902718,776.023926 
	C137.554550,798.653992 155.067856,819.709839 174.155029,839.413940 
	C184.097183,849.677429 194.976288,859.098450 205.955048,868.274414 
	C217.151703,877.632446 228.717590,886.604858 240.601212,895.073364 
	C267.940552,914.555969 297.083191,930.935852 328.472168,942.952759 
	C345.660614,949.533142 363.024445,955.903992 380.749268,960.764526 
	C398.283722,965.572876 416.291718,968.833069 434.242615,971.887207 
	C448.364441,974.289856 462.688324,976.412659 476.970245,976.774475 
	C505.344452,977.493286 533.793335,977.924316 561.966858,973.022888 
	C574.411865,970.857849 587.153320,969.888855 599.306152,966.665405 
	C620.057495,961.161377 640.628967,954.830017 660.952698,947.898438 
	C690.723633,937.744934 718.419312,923.064209 744.996826,906.393433 
	C773.100708,888.765198 798.671570,867.789429 822.526672,844.797791 
	C832.143250,835.529236 841.584412,825.889526 849.795593,815.394043 
	C863.942444,797.311523 877.555359,778.762329 890.500610,759.800232 
	C909.707703,731.665894 924.034302,700.881775 935.835693,669.051880 
	C949.611694,631.896301 958.583191,593.419128 962.825256,554.015686 
	C964.832642,535.369751 965.437500,516.534851 965.834656,497.767731 
	C966.070679,486.616394 964.732483,475.425934 963.978333,464.261414 
	C963.414917,455.920441 963.236084,447.495300 961.860168,439.279419 
	C958.926697,421.762177 955.758057,404.260681 951.906616,386.925842 
	C944.642761,354.232178 933.110596,322.923035 918.854797,292.692383 
	C907.724426,269.089630 894.697937,246.471451 879.575073,225.152771 
	C865.584106,205.429749 850.911133,186.241074 833.672913,169.165054 
	C826.662476,162.220642 819.950134,154.955704 812.678528,148.299438 
	C802.646790,139.116730 792.775085,129.602066 781.821228,121.620659 
	C765.426697,109.674927 748.274536,98.747124 731.219360,87.735207 
	C707.893921,72.674835 682.525269,61.646816 656.583923,52.150391 
	C627.975586,41.677666 598.632141,33.627029 568.249939,29.985323 
	C554.170837,28.297754 540.110596,25.557983 525.997864,25.239513 
	C500.070374,24.654419 474.050110,23.806414 448.247345,27.980658 
	C433.206085,30.413954 417.955170,31.864834 403.118591,35.186787 
	C368.738892,42.884495 335.541260,54.321201 303.795776,69.701401 
	C280.281128,81.093895 258.013763,94.556488 236.609528,109.613297 
	C214.575012,125.113472 194.427307,142.747253 175.227844,161.483704 
	C166.191345,170.302277 157.879425,179.942398 149.907394,189.753220 
	C139.268753,202.845673 128.690216,216.061172 119.148041,229.953400 
	C104.021645,251.975586 90.970779,275.262634 80.008293,299.683838 
	C70.408913,321.068420 62.377590,342.991058 55.725471,365.484161 
	C47.727692,392.527405 42.226051,420.070038 39.195698,448.019562 
	C37.174305,466.663239 36.500664,485.498505 36.171894,504.264648 
	C35.944355,517.252563 37.333447,530.268738 38.002457,544.216125 
z"/>
<path fill="#000000" opacity="1.000000" stroke="none" 
	d="
M38.001312,543.744263 
	C37.333447,530.268738 35.944355,517.252563 36.171894,504.264648 
	C36.500664,485.498505 37.174305,466.663239 39.195698,448.019562 
	C42.226051,420.070038 47.727692,392.527405 55.725471,365.484161 
	C62.377590,342.991058 70.408913,321.068420 80.008293,299.683838 
	C90.970779,275.262634 104.021645,251.975586 119.148041,229.953400 
	C128.690216,216.061172 139.268753,202.845673 149.907394,189.753220 
	C157.879425,179.942398 166.191345,170.302277 175.227844,161.483704 
	C194.427307,142.747253 214.575012,125.113472 236.609528,109.613297 
	C258.013763,94.556488 280.281128,81.093895 303.795776,69.701401 
	C335.541260,54.321201 368.738892,42.884495 403.118591,35.186787 
	C417.955170,31.864834 433.206085,30.413954 448.247345,27.980658 
	C474.050110,23.806414 500.070374,24.654419 525.997864,25.239513 
	C540.110596,25.557983 554.170837,28.297754 568.249939,29.985323 
	C598.632141,33.627029 627.975586,41.677666 656.583923,52.150391 
	C682.525269,61.646816 707.893921,72.674835 731.219360,87.735207 
	C748.274536,98.747124 765.426697,109.674927 781.821228,121.620659 
	C792.775085,129.602066 802.646790,139.116730 812.678528,148.299438 
	C819.950134,154.955704 826.662476,162.220642 833.672913,169.165054 
	C850.911133,186.241074 865.584106,205.429749 879.575073,225.152771 
	C894.697937,246.471451 907.724426,269.089630 918.854797,292.692383 
	C933.110596,322.923035 944.642761,354.232178 951.906616,386.925842 
	C955.758057,404.260681 958.926697,421.762177 961.860168,439.279419 
	C963.236084,447.495300 963.414917,455.920441 963.978333,464.261414 
	C964.732483,475.425934 966.070679,486.616394 965.834656,497.767731 
	C965.437500,516.534851 964.832642,535.369751 962.825256,554.015686 
	C958.583191,593.419128 949.611694,631.896301 935.835693,669.051880 
	C924.034302,700.881775 909.707703,731.665894 890.500610,759.800232 
	C877.555359,778.762329 863.942444,797.311523 849.795593,815.394043 
	C841.584412,825.889526 832.143250,835.529236 822.526672,844.797791 
	C798.671570,867.789429 773.100708,888.765198 744.996826,906.393433 
	C718.419312,923.064209 690.723633,937.744934 660.952698,947.898438 
	C640.628967,954.830017 620.057495,961.161377 599.306152,966.665405 
	C587.153320,969.888855 574.411865,970.857849 561.966858,973.022888 
	C533.793335,977.924316 505.344452,977.493286 476.970245,976.774475 
	C462.688324,976.412659 448.364441,974.289856 434.242615,971.887207 
	C416.291718,968.833069 398.283722,965.572876 380.749268,960.764526 
	C363.024445,955.903992 345.660614,949.533142 328.472168,942.952759 
	C297.083191,930.935852 267.940552,914.555969 240.601212,895.073364 
	C228.717590,886.604858 217.151703,877.632446 205.955048,868.274414 
	C194.976288,859.098450 184.097183,849.677429 174.155029,839.413940 
	C155.067856,819.709839 137.554550,798.653992 121.902718,776.023926 
	C107.201660,754.768494 94.186745,732.557861 83.147491,709.272644 
	C68.828583,679.069641 57.336472,647.741150 50.096478,615.041443 
	C46.222260,597.543457 43.223522,579.846924 40.064644,562.197876 
	C39.003799,556.270813 38.669071,550.213745 38.001312,543.744263 
M836.557251,256.044373 
	C835.848267,255.339600 835.062805,254.696075 834.441650,253.920944 
	C822.433716,238.936844 811.378723,223.050644 798.203552,209.177277 
	C783.485291,193.678970 767.724670,178.867538 750.827393,165.816086 
	C728.330566,148.439484 705.350098,131.385574 678.748352,120.281456 
	C666.030334,114.972679 653.629395,108.821175 640.690674,104.141258 
	C614.613647,94.709274 588.006653,86.964241 560.293640,84.045258 
	C541.410034,82.056259 522.485291,80.311279 503.536469,79.152306 
	C494.505035,78.599915 485.372345,79.617264 476.289764,80.018974 
	C471.033569,80.251450 465.723328,80.274818 460.545837,81.085114 
	C444.872345,83.538048 429.191376,86.019234 413.623627,89.055023 
	C384.173401,94.797958 356.147491,105.019638 329.001373,117.583916 
	C306.601562,127.951416 285.225769,140.268753 265.514893,155.154846 
	C251.095566,166.044632 236.783279,177.203415 223.437256,189.355850 
	C205.545593,205.647385 189.703217,223.930161 175.085480,243.294449 
	C155.672485,269.011108 139.609604,296.600983 126.468697,325.990326 
	C114.764183,352.167206 106.095573,379.226227 99.736115,407.213013 
	C94.818077,428.856293 91.970131,450.705383 90.191032,472.696381 
	C89.145790,485.616364 89.497475,498.714325 90.123718,511.688629 
	C90.953506,528.880005 92.325775,546.064453 94.123627,563.182678 
	C95.237373,573.787109 97.037643,584.388794 99.472511,594.770630 
	C104.528862,616.329834 110.688927,637.564331 118.899193,658.212524 
	C129.087891,683.836304 141.373840,708.353699 156.170029,731.578674 
	C169.296936,752.183472 183.690262,771.900818 200.912872,789.324707 
	C214.012650,802.577576 226.843964,816.243286 241.100403,828.163818 
	C255.315002,840.049255 270.931366,850.322754 286.335907,860.705444 
	C309.626801,876.403625 334.970306,888.262207 361.267639,897.870239 
	C387.310730,907.385376 413.956970,915.035400 441.669159,917.950378 
	C460.717926,919.954041 479.805481,921.934814 498.926331,922.780151 
	C510.711182,923.301025 522.603882,921.835632 534.424744,920.949463 
	C544.523926,920.192444 554.714966,919.665527 564.640564,917.824524 
	C579.189270,915.125977 593.580200,911.520203 607.962219,907.990967 
	C640.930969,899.900696 671.810486,886.436768 701.236572,869.838318 
	C729.001709,854.176758 754.718384,835.346313 777.819519,813.380859 
	C792.153015,799.751892 805.843689,785.232178 818.230652,769.831787 
	C830.329773,754.789246 840.786682,738.365417 851.280640,722.106567 
	C866.764526,698.116211 878.384644,672.156799 887.944336,645.314758 
	C896.105835,622.398499 902.659302,599.007507 906.005798,574.842468 
	C908.148621,559.369141 910.647034,543.904175 911.803101,528.347534 
	C912.764282,515.414551 912.388855,502.338440 911.895020,489.352783 
	C911.358704,475.249908 910.605957,461.101929 908.840576,447.113342 
	C906.877991,431.562347 904.310974,416.023376 900.858704,400.738556 
	C894.445435,372.344025 884.740173,345.014496 872.289734,318.655060 
	C862.096680,297.074677 850.192566,276.500916 836.557251,256.044373 
z"/>
<path fill="#FFFFFF" opacity="1.000000" stroke="none" 
	d="
M836.763550,256.353516 
	C850.192566,276.500916 862.096680,297.074677 872.289734,318.655060 
	C884.740173,345.014496 894.445435,372.344025 900.858704,400.738556 
	C904.310974,416.023376 906.877991,431.562347 908.840576,447.113342 
	C910.605957,461.101929 911.358704,475.249908 911.895020,489.352783 
	C912.388855,502.338440 912.764282,515.414551 911.803101,528.347534 
	C910.647034,543.904175 908.148621,559.369141 906.005798,574.842468 
	C902.659302,599.007507 896.105835,622.398499 887.944336,645.314758 
	C878.384644,672.156799 866.764526,698.116211 851.280640,722.106567 
	C840.786682,738.365417 830.329773,754.789246 818.230652,769.831787 
	C805.843689,785.232178 792.153015,799.751892 777.819519,813.380859 
	C754.718384,835.346313 729.001709,854.176758 701.236572,869.838318 
	C671.810486,886.436768 640.930969,899.900696 607.962219,907.990967 
	C593.580200,911.520203 579.189270,915.125977 564.640564,917.824524 
	C554.714966,919.665527 544.523926,920.192444 534.424744,920.949463 
	C522.603882,921.835632 510.711182,923.301025 498.926331,922.780151 
	C479.805481,921.934814 460.717926,919.954041 441.669159,917.950378 
	C413.956970,915.035400 387.310730,907.385376 361.267639,897.870239 
	C334.970306,888.262207 309.626801,876.403625 286.335907,860.705444 
	C270.931366,850.322754 255.315002,840.049255 241.100403,828.163818 
	C226.843964,816.243286 214.012650,802.577576 200.912872,789.324707 
	C183.690262,771.900818 169.296936,752.183472 156.170029,731.578674 
	C141.373840,708.353699 129.087891,683.836304 118.899193,658.212524 
	C110.688927,637.564331 104.528862,616.329834 99.472511,594.770630 
	C97.037643,584.388794 95.237373,573.787109 94.123627,563.182678 
	C92.325775,546.064453 90.953506,528.880005 90.123718,511.688629 
	C89.497475,498.714325 89.145790,485.616364 90.191032,472.696381 
	C91.970131,450.705383 94.818077,428.856293 99.736115,407.213013 
	C106.095573,379.226227 114.764183,352.167206 126.468697,325.990326 
	C139.609604,296.600983 155.672485,269.011108 175.085480,243.294449 
	C189.703217,223.930161 205.545593,205.647385 223.437256,189.355850 
	C236.783279,177.203415 251.095566,166.044632 265.514893,155.154846 
	C285.225769,140.268753 306.601562,127.951416 329.001373,117.583916 
	C356.147491,105.019638 384.173401,94.797958 413.623627,89.055023 
	C429.191376,86.019234 444.872345,83.538048 460.545837,81.085114 
	C465.723328,80.274818 471.033569,80.251450 476.289764,80.018974 
	C485.372345,79.617264 494.505035,78.599915 503.536469,79.152306 
	C522.485291,80.311279 541.410034,82.056259 560.293640,84.045258 
	C588.006653,86.964241 614.613647,94.709274 640.690674,104.141258 
	C653.629395,108.821175 666.030334,114.972679 678.748352,120.281456 
	C705.350098,131.385574 728.330566,148.439484 750.827393,165.816086 
	C767.724670,178.867538 783.485291,193.678970 798.203552,209.177277 
	C811.378723,223.050644 822.433716,238.936844 834.441650,253.920944 
	C835.062805,254.696075 835.848267,255.339600 836.763550,256.353516 
M633.000000,367.500000 
	C633.000000,452.611176 633.000000,537.722351 633.000000,623.481934 
	C631.084778,622.834412 629.575012,622.667053 628.484009,621.902222 
	C616.842407,613.740967 605.299255,605.438782 593.638062,597.305969 
	C591.935242,596.118408 590.000122,594.726929 588.219971,598.067261 
	C586.717896,600.885620 584.140991,603.160706 581.911438,605.556702 
	C571.137207,617.135193 558.565796,626.149658 543.818604,632.014526 
	C532.328125,636.584106 520.421875,639.832581 508.063293,639.902832 
	C464.231659,640.151917 420.397736,640.000000 376.564697,640.000000 
	C374.793823,640.000000 373.022980,640.000000 371.269714,640.000000 
	C371.269714,524.729614 371.269714,409.991669 371.269714,295.000000 
	C373.177338,295.000000 374.817627,295.000000 376.457916,295.000000 
	C405.124390,295.000000 433.795410,295.305573 462.455627,294.881775 
	C478.817383,294.639832 494.599609,296.738495 509.683777,303.049194 
	C525.232727,309.554230 538.697937,319.131775 548.838745,332.669250 
	C558.366394,345.388214 564.312927,359.731750 565.259094,376.413330 
	C575.768494,372.179352 585.767822,373.900757 596.129883,378.637329 
	C596.129883,351.928650 596.129883,326.036957 596.129883,299.547607 
	C602.085754,299.547607 607.534119,299.547607 614.305908,299.547607 
	C578.341431,283.720062 547.300842,246.970108 556.302673,195.291473 
	C564.269226,149.555740 594.124756,124.477135 639.549683,116.071312 
	C638.314819,115.304298 637.612366,114.645828 636.784973,114.387222 
	C623.477112,110.227692 610.312073,105.466171 596.789673,102.177811 
	C582.528931,98.709885 568.006104,96.007996 553.446777,94.161980 
	C537.039673,92.081680 520.484802,90.704437 503.956665,90.157036 
	C482.924652,89.460457 461.947113,91.204834 441.218140,95.036537 
	C427.899567,97.498451 414.537842,99.878014 401.394989,103.106613 
	C377.666931,108.935516 354.859192,117.546402 332.831268,128.074097 
	C312.026855,138.017044 291.775391,149.104019 273.493103,163.213531 
	C257.482758,175.569687 241.814789,188.450272 226.811798,202.002762 
	C216.674423,211.160034 207.543015,221.538925 198.712280,232.004761 
	C189.624252,242.775528 181.168976,254.114838 172.934570,265.563354 
	C159.561615,284.156128 148.379364,304.076263 139.063446,324.989532 
	C134.047562,336.249664 129.305389,347.657715 125.036354,359.219330 
	C115.414948,385.276337 108.127144,411.994843 105.075928,439.660675 
	C102.940063,459.026855 101.025734,478.461487 100.225395,497.915436 
	C99.699280,510.703888 101.040787,523.605103 102.087807,536.411499 
	C102.989555,547.441162 103.966629,558.546997 106.141655,569.371765 
	C109.847847,587.817017 113.785995,606.277710 118.948669,624.354370 
	C127.887260,655.652161 141.472412,685.018860 157.934845,713.125793 
	C172.509476,738.009644 189.702621,760.924438 208.973892,782.245239 
	C217.962830,792.190186 228.051590,801.164734 237.887665,810.314880 
	C254.219437,825.507629 272.128296,838.601196 290.952820,850.598206 
	C317.517975,867.528381 345.645538,880.998657 375.441040,891.086853 
	C399.160950,899.118042 423.383545,904.819519 448.252411,908.129089 
	C467.875732,910.740601 487.519135,912.437561 507.272461,911.880371 
	C520.044067,911.520142 532.842224,910.476562 545.521057,908.884155 
	C559.807800,907.089783 574.073853,904.817139 588.171448,901.896362 
	C615.610779,896.211365 641.896057,886.789551 667.196838,874.874329 
	C688.046570,865.055298 707.965637,853.542725 726.812500,840.122314 
	C743.742126,828.067200 760.028992,815.294556 774.732483,800.635437 
	C784.553894,790.843750 794.150940,780.763916 803.108765,770.186646 
	C812.219788,759.428467 820.784790,748.158020 828.942505,736.653625 
	C841.800415,718.520691 852.985046,699.343384 861.960327,678.968994 
	C867.191345,667.094543 872.472717,655.207886 876.925171,643.031921 
	C886.515747,616.805176 893.850647,589.944458 896.983643,562.105774 
	C898.866150,545.379028 900.793457,528.634338 901.828308,511.843994 
	C902.436035,501.982910 901.474426,492.009033 900.958496,482.099457 
	C900.489197,473.086945 900.078064,464.039246 898.911194,455.102417 
	C896.896057,439.668854 895.220276,424.103821 891.785339,408.960693 
	C884.383179,376.328186 873.739685,344.619995 858.173523,314.958191 
	C848.179749,295.914703 837.116455,277.253265 824.717590,259.702789 
	C812.886047,242.955307 799.575928,227.023911 785.310181,212.288086 
	C770.713806,197.210556 754.179626,184.007080 738.438904,170.044937 
	C737.659851,169.353928 736.358459,169.251862 734.888672,168.729172 
	C749.489319,204.128876 748.110352,237.575500 725.262146,267.914795 
	C702.390442,298.285339 670.660278,309.508362 633.000000,304.835693 
	C633.000000,325.878510 633.000000,346.189270 633.000000,367.500000 
M672.234863,291.968628 
	C672.973145,291.646210 673.686584,291.239319 674.453308,291.013611 
	C693.372070,285.444061 707.910217,273.693054 718.890015,257.819122 
	C731.411987,239.715485 735.430603,219.444275 732.108826,197.546448 
	C730.047180,183.956085 724.618469,172.018158 716.584351,161.135330 
	C709.406128,151.411850 699.985413,144.663101 689.511047,138.449219 
	C672.369812,128.280243 654.419617,124.763535 635.308960,128.175278 
	C611.910889,132.352432 593.260376,144.744629 579.951782,164.531158 
	C566.394775,184.686996 562.424438,206.783691 568.007141,230.484726 
	C572.799011,250.828354 584.037292,266.981384 600.794067,279.176239 
	C612.277649,287.533508 625.160156,292.380280 639.463867,294.213531 
	C650.424744,295.618347 660.873901,294.522186 672.234863,291.968628 
M482.134735,435.970581 
	C482.563263,435.718475 482.967682,435.306274 483.423859,435.237518 
	C495.876282,433.359985 506.280365,427.745514 514.952271,418.593567 
	C531.563965,401.062347 532.490356,373.726013 516.456482,354.998962 
	C503.470276,339.831451 486.253906,333.554291 466.822815,333.086395 
	C449.681335,332.673645 432.522064,332.994446 415.370667,333.010223 
	C413.946655,333.011536 412.522766,333.157104 411.305176,333.224274 
	C411.305176,368.051331 411.305176,402.435516 411.305176,435.997986 
	C434.822845,435.997986 458.031555,435.997986 482.134735,435.970581 
M535.940247,590.575684 
	C543.398743,585.038025 551.601196,580.264587 556.291504,571.486694 
	C540.338745,560.402588 524.923279,549.524353 509.278473,538.986694 
	C506.672058,537.231201 503.073700,536.152344 499.922546,536.126587 
	C472.954926,535.905884 445.984772,536.000000 419.015350,536.000000 
	C417.417511,536.000000 415.819672,536.000000 414.260132,536.000000 
	C414.260132,557.952454 414.260132,579.340759 414.260132,601.000000 
	C439.794464,601.000000 465.078247,600.600159 490.341644,601.145142 
	C506.337250,601.490234 521.278198,598.652649 535.940247,590.575684 
M513.529480,510.017242 
	C531.698547,522.580444 549.867554,535.143616 569.046631,548.405212 
	C569.046631,545.045471 568.737488,543.325806 569.095520,541.758606 
	C571.919495,529.395386 569.431885,517.767334 563.411316,507.047607 
	C554.738831,491.606232 540.777710,482.330322 524.286438,477.184204 
	C516.502930,474.755280 508.131348,473.585663 499.959076,473.171936 
	C487.153961,472.523651 474.291901,473.000000 460.581848,473.000000 
	C478.646667,485.578949 495.823334,497.539490 513.529480,510.017242 
M414.000000,487.507935 
	C414.000000,497.270386 414.000000,507.032837 414.000000,516.697021 
	C435.244720,516.697021 455.910522,516.697021 477.610962,516.697021 
	C456.076599,501.713165 435.384186,487.315094 414.000000,472.435730 
	C414.000000,477.654633 414.000000,482.084045 414.000000,487.507935 
M564.017578,394.999359 
	C562.574463,400.245178 561.368469,405.572205 559.609070,410.709717 
	C558.331055,414.441650 556.426392,417.750763 559.212830,421.730560 
	C564.961365,429.940918 574.475098,433.633575 584.018677,430.980957 
	C592.031799,428.753693 596.000000,423.465973 596.000000,415.015442 
	C596.000000,410.683655 596.181091,406.340698 595.914001,402.025421 
	C595.801575,400.209259 595.178772,398.086639 594.041809,396.727448 
	C587.254700,388.613647 573.854065,385.395447 564.017578,394.999359 
M576.004639,465.507507 
	C582.803772,471.367035 589.602844,477.226562 595.535095,482.338989 
	C595.535095,470.657074 595.535095,456.893677 595.535095,442.772552 
	C587.671875,445.191925 580.194641,447.808411 571.795959,446.152954 
	C563.170105,444.452698 555.783264,440.817932 550.274658,434.269226 
	C547.836548,431.370789 546.989990,431.862122 544.634766,433.774078 
	C539.210205,438.177673 533.531433,442.268188 528.774170,445.866760 
	C545.409180,447.248169 561.385803,453.769501 576.004639,465.507507 
z"/>
<path fill="#000000" opacity="1.000000" stroke="none" 
	d="
M633.000000,367.000000 
	C633.000000,346.189270 633.000000,325.878510 633.000000,304.835693 
	C670.660278,309.508362 702.390442,298.285339 725.262146,267.914795 
	C748.110352,237.575500 749.489319,204.128876 734.888672,168.729172 
	C736.358459,169.251862 737.659851,169.353928 738.438904,170.044937 
	C754.179626,184.007080 770.713806,197.210556 785.310181,212.288086 
	C799.575928,227.023911 812.886047,242.955307 824.717590,259.702789 
	C837.116455,277.253265 848.179749,295.914703 858.173523,314.958191 
	C873.739685,344.619995 884.383179,376.328186 891.785339,408.960693 
	C895.220276,424.103821 896.896057,439.668854 898.911194,455.102417 
	C900.078064,464.039246 900.489197,473.086945 900.958496,482.099457 
	C901.474426,492.009033 902.436035,501.982910 901.828308,511.843994 
	C900.793457,528.634338 898.866150,545.379028 896.983643,562.105774 
	C893.850647,589.944458 886.515747,616.805176 876.925171,643.031921 
	C872.472717,655.207886 867.191345,667.094543 861.960327,678.968994 
	C852.985046,699.343384 841.800415,718.520691 828.942505,736.653625 
	C820.784790,748.158020 812.219788,759.428467 803.108765,770.186646 
	C794.150940,780.763916 784.553894,790.843750 774.732483,800.635437 
	C760.028992,815.294556 743.742126,828.067200 726.812500,840.122314 
	C707.965637,853.542725 688.046570,865.055298 667.196838,874.874329 
	C641.896057,886.789551 615.610779,896.211365 588.171448,901.896362 
	C574.073853,904.817139 559.807800,907.089783 545.521057,908.884155 
	C532.842224,910.476562 520.044067,911.520142 507.272461,911.880371 
	C487.519135,912.437561 467.875732,910.740601 448.252411,908.129089 
	C423.383545,904.819519 399.160950,899.118042 375.441040,891.086853 
	C345.645538,880.998657 317.517975,867.528381 290.952820,850.598206 
	C272.128296,838.601196 254.219437,825.507629 237.887665,810.314880 
	C228.051590,801.164734 217.962830,792.190186 208.973892,782.245239 
	C189.702621,760.924438 172.509476,738.009644 157.934845,713.125793 
	C141.472412,685.018860 127.887260,655.652161 118.948669,624.354370 
	C113.785995,606.277710 109.847847,587.817017 106.141655,569.371765 
	C103.966629,558.546997 102.989555,547.441162 102.087807,536.411499 
	C101.040787,523.605103 99.699280,510.703888 100.225395,497.915436 
	C101.025734,478.461487 102.940063,459.026855 105.075928,439.660675 
	C108.127144,411.994843 115.414948,385.276337 125.036354,359.219330 
	C129.305389,347.657715 134.047562,336.249664 139.063446,324.989532 
	C148.379364,304.076263 159.561615,284.156128 172.934570,265.563354 
	C181.168976,254.114838 189.624252,242.775528 198.712280,232.004761 
	C207.543015,221.538925 216.674423,211.160034 226.811798,202.002762 
	C241.814789,188.450272 257.482758,175.569687 273.493103,163.213531 
	C291.775391,149.104019 312.026855,138.017044 332.831268,128.074097 
	C354.859192,117.546402 377.666931,108.935516 401.394989,103.106613 
	C414.537842,99.878014 427.899567,97.498451 441.218140,95.036537 
	C461.947113,91.204834 482.924652,89.460457 503.956665,90.157036 
	C520.484802,90.704437 537.039673,92.081680 553.446777,94.161980 
	C568.006104,96.007996 582.528931,98.709885 596.789673,102.177811 
	C610.312073,105.466171 623.477112,110.227692 636.784973,114.387222 
	C637.612366,114.645828 638.314819,115.304298 639.549683,116.071312 
	C594.124756,124.477135 564.269226,149.555740 556.302673,195.291473 
	C547.300842,246.970108 578.341431,283.720062 614.305908,299.547607 
	C607.534119,299.547607 602.085754,299.547607 596.129883,299.547607 
	C596.129883,326.036957 596.129883,351.928650 596.129883,378.637329 
	C585.767822,373.900757 575.768494,372.179352 565.259094,376.413330 
	C564.312927,359.731750 558.366394,345.388214 548.838745,332.669250 
	C538.697937,319.131775 525.232727,309.554230 509.683777,303.049194 
	C494.599609,296.738495 478.817383,294.639832 462.455627,294.881775 
	C433.795410,295.305573 405.124390,295.000000 376.457916,295.000000 
	C374.817627,295.000000 373.177338,295.000000 371.269714,295.000000 
	C371.269714,409.991669 371.269714,524.729614 371.269714,640.000000 
	C373.022980,640.000000 374.793823,640.000000 376.564697,640.000000 
	C420.397736,640.000000 464.231659,640.151917 508.063293,639.902832 
	C520.421875,639.832581 532.328125,636.584106 543.818604,632.014526 
	C558.565796,626.149658 571.137207,617.135193 581.911438,605.556702 
	C584.140991,603.160706 586.717896,600.885620 588.219971,598.067261 
	C590.000122,594.726929 591.935242,596.118408 593.638062,597.305969 
	C605.299255,605.438782 616.842407,613.740967 628.484009,621.902222 
	C629.575012,622.667053 631.084778,622.834412 633.000000,623.481934 
	C633.000000,537.722351 633.000000,452.611176 633.000000,367.000000 
M539.529907,674.000000 
	C537.430176,674.000000 535.330383,674.000000 533.251831,674.000000 
	C533.251831,687.965881 533.251831,701.377869 533.251831,714.751221 
	C534.911011,714.751221 536.314392,714.751221 538.082642,714.751221 
	C538.082642,709.412537 538.082642,704.312500 538.082642,699.250732 
	C544.666077,698.821533 544.666077,698.821533 549.015991,705.190491 
	C555.885010,715.247864 555.885071,715.249939 567.844177,714.970032 
	C568.159607,714.962708 568.471130,714.787781 568.785339,714.687134 
	C569.728638,712.505371 570.671936,710.323669 571.676575,708.000061 
	C577.804993,708.000061 583.962402,707.881348 590.108154,708.094971 
	C591.419556,708.140625 593.638794,709.207336 593.818359,710.121887 
	C594.749023,714.863464 597.517517,715.771790 601.886536,714.645203 
	C595.475708,700.581970 589.091064,686.576233 582.159546,671.370789 
	C575.958191,685.390686 570.485352,697.822754 564.948303,710.226196 
	C563.974365,712.407776 562.618774,714.821777 560.213989,711.599731 
	C557.034668,707.339844 554.166260,702.847961 551.165771,698.455261 
	C556.109985,695.947327 559.347229,692.115967 558.914307,686.394226 
	C558.497864,680.889893 556.026001,676.274963 550.199402,674.843384 
	C547.084351,674.078125 543.738831,674.250732 539.529907,674.000000 
M440.000092,695.331421 
	C441.525757,708.398132 451.050629,715.971924 462.415192,715.123230 
	C471.049622,714.478455 478.065948,709.857788 481.490509,701.001953 
	C483.957031,694.623596 481.154846,682.534058 475.784149,678.417969 
	C468.493713,672.830566 460.233795,670.989441 451.767761,675.197571 
	C444.081024,679.018188 440.302094,685.820190 440.000092,695.331421 
M405.058197,680.591309 
	C401.041321,675.997620 395.904877,673.362854 389.903137,673.066772 
	C379.002228,672.529053 366.492523,680.923889 367.875397,696.073059 
	C368.592194,703.925354 373.441620,711.338379 381.234619,713.990479 
	C389.797638,716.904541 399.033447,714.519348 404.164154,708.564636 
	C411.295258,700.288147 411.936096,691.298279 405.058197,680.591309 
M514.201538,714.008911 
	C522.914185,711.880981 528.559387,701.624878 526.528503,693.214905 
	C520.129028,693.214905 513.705872,693.214905 506.967285,693.214905 
	C507.126373,694.646118 507.256531,695.817078 507.403809,697.142029 
	C512.111755,697.142029 516.416809,697.142029 520.702576,697.142029 
	C521.136902,702.995605 517.980774,707.384949 511.886810,709.624573 
	C506.312622,711.673279 497.695160,708.252197 493.831299,702.282349 
	C489.700348,695.899780 490.557983,689.737488 495.551941,684.290710 
	C498.287292,681.307373 502.900848,678.493530 506.703125,678.445801 
	C511.152405,678.390076 515.640442,681.428284 520.329285,683.206848 
	C520.511597,682.796143 520.844421,682.079102 521.149536,681.350525 
	C521.510803,680.488098 521.848267,679.615662 522.168152,678.817261 
	C509.720734,669.305115 498.945465,672.864014 492.588989,679.040344 
	C485.135773,686.282410 483.902740,696.064453 489.055786,705.145813 
	C493.900635,713.683960 503.697418,717.145447 514.201538,714.008911 
M668.996887,713.236328 
	C668.996887,700.177490 668.996887,687.118652 668.996887,674.151855 
	C666.692749,674.151855 665.067261,674.151855 662.888306,674.151855 
	C662.888306,680.156982 662.888306,686.028870 662.888306,691.676331 
	C655.928711,691.676331 649.528381,691.676331 642.780579,691.676331 
	C642.780579,685.600525 642.780579,679.843628 642.780579,673.921082 
	C640.996765,674.034241 639.590332,674.123474 638.256653,674.208130 
	C638.256653,688.001160 638.256653,701.402039 638.256653,714.747070 
	C639.929810,714.747070 641.331909,714.747070 643.107361,714.747070 
	C643.107361,708.762207 643.107361,703.018799 643.107361,697.238953 
	C649.896912,697.238953 656.293152,697.238953 663.065674,697.238953 
	C663.065674,703.214111 663.065674,708.962341 663.065674,715.341797 
	C665.323853,714.899353 667.138733,714.543762 668.996887,713.236328 
M337.003937,690.292053 
	C337.003937,684.876465 337.003937,679.460876 337.003937,674.148193 
	C334.700745,674.148193 333.074280,674.148193 331.294373,674.148193 
	C331.294373,687.824829 331.294373,701.352295 331.294373,715.057007 
	C333.339264,714.954956 335.079193,714.868103 337.190247,714.762756 
	C337.190247,708.665039 337.190247,702.928894 337.190247,697.281921 
	C343.985657,697.281921 350.381317,697.281921 357.141541,697.281921 
	C357.141541,703.308960 357.141541,709.058777 357.141541,714.748047 
	C358.918182,714.748047 360.320190,714.748047 361.780518,714.748047 
	C361.780518,701.096558 361.780518,687.697144 361.780518,674.203857 
	C360.157990,674.203857 358.756805,674.203857 356.974304,674.203857 
	C356.974304,680.138794 356.974304,685.885925 356.974304,692.338440 
	C350.063721,691.963257 343.560181,691.610168 337.003937,690.292053 
M299.000000,688.504761 
	C299.000000,697.282898 299.000000,706.061035 299.000000,714.729492 
	C300.943909,714.729492 302.348053,714.729492 304.144440,714.729492 
	C304.144440,709.717163 304.144440,704.962280 304.144440,699.999634 
	C307.517487,699.999634 310.498779,700.127380 313.465485,699.973877 
	C320.244629,699.622986 326.403961,693.888733 326.993225,687.535583 
	C327.475983,682.330627 321.701447,674.755737 315.975769,674.160706 
	C310.440887,673.585510 304.799347,674.036133 299.000000,674.036133 
	C299.000000,678.887268 299.000000,683.197571 299.000000,688.504761 
M607.710754,674.003967 
	C607.141663,674.602417 606.080383,675.197327 606.075928,675.799988 
	C605.980591,688.753967 606.003540,701.708862 606.003540,715.014587 
	C607.943604,714.921631 609.447693,714.849548 611.158081,714.767578 
	C611.158081,709.613892 611.158081,704.996460 611.158081,699.999878 
	C614.340332,699.999878 617.301636,700.106689 620.252808,699.979309 
	C628.271790,699.633301 633.174133,693.998657 632.999939,685.457092 
	C632.871521,679.158936 626.906311,674.026428 619.670532,674.002197 
	C616.005615,673.989868 612.340576,674.000122 607.710754,674.003967 
M703.970459,679.331543 
	C704.833130,677.638428 705.695862,675.945374 706.559143,674.252991 
	C702.487610,673.213623 699.746887,674.265381 697.757751,678.389404 
	C695.765564,682.519775 692.820312,686.190491 689.742493,690.905823 
	C686.890808,686.402283 684.096252,682.523499 681.884888,678.336670 
	C679.928711,674.633179 677.474121,673.033386 672.964905,674.467834 
	C680.131897,687.110291 691.454468,698.192932 686.286743,714.629150 
	C688.899109,714.629150 690.401367,714.629150 692.000000,714.629150 
	C692.000000,711.436218 691.927795,708.609680 692.019836,705.788574 
	C692.115601,702.852783 691.480713,699.453857 692.729919,697.081360 
	C695.865417,691.126465 699.884460,685.636719 703.970459,679.331543 
M422.000000,700.495728 
	C422.000000,705.261780 422.000000,710.027832 422.000000,714.748047 
	C424.252380,714.748047 425.987244,714.748047 428.073822,714.748047 
	C428.073822,702.783020 428.073822,691.064148 428.073822,678.976440 
	C431.834503,678.976440 435.244934,678.976440 439.000519,678.976440 
	C438.915131,677.069214 438.848083,675.570801 438.784912,674.159424 
	C429.318817,674.159424 420.386597,674.159424 411.320312,674.159424 
	C411.320312,675.829529 411.320312,677.330933 411.320312,679.221680 
	C415.039001,679.221680 418.439362,679.221680 422.000000,679.221680 
	C422.000000,686.243286 422.000000,692.869995 422.000000,700.495728 
z"/>
<path fill="#000000" opacity="1.000000" stroke="none" 
	d="
M671.812988,291.985168 
	C660.873901,294.522186 650.424744,295.618347 639.463867,294.213531 
	C625.160156,292.380280 612.277649,287.533508 600.794067,279.176239 
	C584.037292,266.981384 572.799011,250.828354 568.007141,230.484726 
	C562.424438,206.783691 566.394775,184.686996 579.951782,164.531158 
	C593.260376,144.744629 611.910889,132.352432 635.308960,128.175278 
	C654.419617,124.763535 672.369812,128.280243 689.511047,138.449219 
	C699.985413,144.663101 709.406128,151.411850 716.584351,161.135330 
	C724.618469,172.018158 730.047180,183.956085 732.108826,197.546448 
	C735.430603,219.444275 731.411987,239.715485 718.890015,257.819122 
	C707.910217,273.693054 693.372070,285.444061 674.453308,291.013611 
	C673.686584,291.239319 672.973145,291.646210 671.812988,291.985168 
z"/>
<path fill="#000000" opacity="1.000000" stroke="none" 
	d="
M481.687500,435.984283 
	C458.031555,435.997986 434.822845,435.997986 411.305176,435.997986 
	C411.305176,402.435516 411.305176,368.051331 411.305176,333.224274 
	C412.522766,333.157104 413.946655,333.011536 415.370667,333.010223 
	C432.522064,332.994446 449.681335,332.673645 466.822815,333.086395 
	C486.253906,333.554291 503.470276,339.831451 516.456482,354.998962 
	C532.490356,373.726013 531.563965,401.062347 514.952271,418.593567 
	C506.280365,427.745514 495.876282,433.359985 483.423859,435.237518 
	C482.967682,435.306274 482.563263,435.718475 481.687500,435.984283 
z"/>
<path fill="#000000" opacity="1.000000" stroke="none" 
	d="
M535.616821,590.774109 
	C521.278198,598.652649 506.337250,601.490234 490.341644,601.145142 
	C465.078247,600.600159 439.794464,601.000000 414.260132,601.000000 
	C414.260132,579.340759 414.260132,557.952454 414.260132,536.000000 
	C415.819672,536.000000 417.417511,536.000000 419.015350,536.000000 
	C445.984772,536.000000 472.954926,535.905884 499.922546,536.126587 
	C503.073700,536.152344 506.672058,537.231201 509.278473,538.986694 
	C524.923279,549.524353 540.338745,560.402588 556.291504,571.486694 
	C551.601196,580.264587 543.398743,585.038025 535.616821,590.774109 
z"/>
<path fill="#000000" opacity="1.000000" stroke="none" 
	d="
M513.264771,509.758606 
	C495.823334,497.539490 478.646667,485.578949 460.581848,473.000000 
	C474.291901,473.000000 487.153961,472.523651 499.959076,473.171936 
	C508.131348,473.585663 516.502930,474.755280 524.286438,477.184204 
	C540.777710,482.330322 554.738831,491.606232 563.411316,507.047607 
	C569.431885,517.767334 571.919495,529.395386 569.095520,541.758606 
	C568.737488,543.325806 569.046631,545.045471 569.046631,548.405212 
	C549.867554,535.143616 531.698547,522.580444 513.264771,509.758606 
z"/>
<path fill="#000000" opacity="1.000000" stroke="none" 
	d="
M414.000000,487.010681 
	C414.000000,482.084045 414.000000,477.654633 414.000000,472.435730 
	C435.384186,487.315094 456.076599,501.713165 477.610962,516.697021 
	C455.910522,516.697021 435.244720,516.697021 414.000000,516.697021 
	C414.000000,507.032837 414.000000,497.270386 414.000000,487.010681 
z"/>
<path fill="#000000" opacity="1.000000" stroke="none" 
	d="
M564.134338,394.609222 
	C573.854065,385.395447 587.254700,388.613647 594.041809,396.727448 
	C595.178772,398.086639 595.801575,400.209259 595.914001,402.025421 
	C596.181091,406.340698 596.000000,410.683655 596.000000,415.015442 
	C596.000000,423.465973 592.031799,428.753693 584.018677,430.980957 
	C574.475098,433.633575 564.961365,429.940918 559.212830,421.730560 
	C556.426392,417.750763 558.331055,414.441650 559.609070,410.709717 
	C561.368469,405.572205 562.574463,400.245178 564.134338,394.609222 
z"/>
<path fill="#000000" opacity="1.000000" stroke="none" 
	d="
M575.744751,465.248810 
	C561.385803,453.769501 545.409180,447.248169 528.774170,445.866760 
	C533.531433,442.268188 539.210205,438.177673 544.634766,433.774078 
	C546.989990,431.862122 547.836548,431.370789 550.274658,434.269226 
	C555.783264,440.817932 563.170105,444.452698 571.795959,446.152954 
	C580.194641,447.808411 587.671875,445.191925 595.535095,442.772552 
	C595.535095,456.893677 595.535095,470.657074 595.535095,482.338989 
	C589.602844,477.226562 582.803772,471.367035 575.744751,465.248810 
z"/>
<path fill="#FFFFFF" opacity="1.000000" stroke="none" 
	d="
M540.013611,674.000000 
	C543.738831,674.250732 547.084351,674.078125 550.199402,674.843384 
	C556.026001,676.274963 558.497864,680.889893 558.914307,686.394226 
	C559.347229,692.115967 556.109985,695.947327 551.165039,698.455505 
	C554.166260,702.847961 557.034668,707.339844 560.213989,711.599731 
	C562.618774,714.821777 563.974365,712.407776 564.948303,710.226196 
	C570.485352,697.822754 575.958191,685.390686 582.159546,671.370789 
	C589.091064,686.576233 595.475708,700.581970 601.886536,714.645203 
	C597.517517,715.771790 594.749023,714.863464 593.818359,710.121887 
	C593.638794,709.207336 591.419556,708.140625 590.108154,708.094971 
	C583.962402,707.881348 577.804993,708.000061 571.676575,708.000061 
	C570.671936,710.323669 569.728638,712.505371 568.784912,714.689087 
	C568.471130,714.787781 568.159607,714.962708 567.844177,714.970032 
	C555.885071,715.249939 555.885010,715.247864 549.015991,705.190491 
	C544.666077,698.821533 544.666077,698.821533 538.082642,699.250732 
	C538.082642,704.312500 538.082642,709.412537 538.082642,714.751221 
	C536.314392,714.751221 534.911011,714.751221 533.251831,714.751221 
	C533.251831,701.377869 533.251831,687.965881 533.251831,674.000000 
	C535.330383,674.000000 537.430176,674.000000 540.013611,674.000000 
M552.157837,682.722046 
	C548.486694,677.621887 543.256470,679.160950 538.209839,679.092957 
	C538.209839,684.540039 538.209839,689.606628 538.209839,694.645203 
	C549.946655,696.062866 554.781982,691.438538 552.157837,682.722046 
M587.148132,702.999939 
	C589.357300,703.171997 590.835022,702.768433 589.582886,700.051575 
	C587.920776,696.445129 586.370972,692.784668 584.616577,689.224426 
	C583.983032,687.938965 582.897522,686.876221 581.668823,685.248962 
	C578.948242,691.592163 576.571289,697.134277 574.055481,703.000000 
	C578.628113,703.000000 582.426819,703.000000 587.148132,702.999939 
z"/>
<path fill="#FFFFFF" opacity="1.000000" stroke="none" 
	d="
M440.000061,694.892822 
	C440.302094,685.820190 444.081024,679.018188 451.767761,675.197571 
	C460.233795,670.989441 468.493713,672.830566 475.784149,678.417969 
	C481.154846,682.534058 483.957031,694.623596 481.490509,701.001953 
	C478.065948,709.857788 471.049622,714.478455 462.415192,715.123230 
	C451.050629,715.971924 441.525757,708.398132 440.000061,694.892822 
M466.096344,679.021362 
	C451.737610,675.907715 443.206909,688.509827 445.984070,698.610657 
	C447.453308,703.954407 454.137085,709.682739 459.615356,709.999878 
	C466.738098,710.412231 473.783600,706.119629 475.977814,700.071838 
	C478.486267,693.157959 476.952362,684.444702 466.096344,679.021362 
z"/>
<path fill="#FFFFFF" opacity="1.000000" stroke="none" 
	d="
M405.339905,680.844055 
	C411.936096,691.298279 411.295258,700.288147 404.164154,708.564636 
	C399.033447,714.519348 389.797638,716.904541 381.234619,713.990479 
	C373.441620,711.338379 368.592194,703.925354 367.875397,696.073059 
	C366.492523,680.923889 379.002228,672.529053 389.903137,673.066772 
	C395.904877,673.362854 401.041321,675.997620 405.339905,680.844055 
M398.255432,706.975098 
	C403.122040,702.450745 405.829712,697.221130 404.007965,690.340088 
	C402.313843,683.940979 393.419678,676.886047 387.748352,678.103027 
	C378.636719,680.058167 373.517181,685.218567 373.020325,693.978516 
	C372.345734,705.872131 387.606812,715.318359 398.255432,706.975098 
z"/>
<path fill="#FFFFFF" opacity="1.000000" stroke="none" 
	d="
M513.782104,714.069336 
	C503.697418,717.145447 493.900635,713.683960 489.055786,705.145813 
	C483.902740,696.064453 485.135773,686.282410 492.588989,679.040344 
	C498.945465,672.864014 509.720734,669.305115 522.168152,678.817261 
	C521.848267,679.615662 521.510803,680.488098 521.149536,681.350525 
	C520.844421,682.079102 520.511597,682.796143 520.329285,683.206848 
	C515.640442,681.428284 511.152405,678.390076 506.703125,678.445801 
	C502.900848,678.493530 498.287292,681.307373 495.551941,684.290710 
	C490.557983,689.737488 489.700348,695.899780 493.831299,702.282349 
	C497.695160,708.252197 506.312622,711.673279 511.886810,709.624573 
	C517.980774,707.384949 521.136902,702.995605 520.702576,697.142029 
	C516.416809,697.142029 512.111755,697.142029 507.403809,697.142029 
	C507.256531,695.817078 507.126373,694.646118 506.967285,693.214905 
	C513.705872,693.214905 520.129028,693.214905 526.528503,693.214905 
	C528.559387,701.624878 522.914185,711.880981 513.782104,714.069336 
z"/>
<path fill="#FFFFFF" opacity="1.000000" stroke="none" 
	d="
M668.975220,713.712219 
	C667.138733,714.543762 665.323853,714.899353 663.065674,715.341797 
	C663.065674,708.962341 663.065674,703.214111 663.065674,697.238953 
	C656.293152,697.238953 649.896912,697.238953 643.107361,697.238953 
	C643.107361,703.018799 643.107361,708.762207 643.107361,714.747070 
	C641.331909,714.747070 639.929810,714.747070 638.256653,714.747070 
	C638.256653,701.402039 638.256653,688.001160 638.256653,674.208130 
	C639.590332,674.123474 640.996765,674.034241 642.780579,673.921082 
	C642.780579,679.843628 642.780579,685.600525 642.780579,691.676331 
	C649.528381,691.676331 655.928711,691.676331 662.888306,691.676331 
	C662.888306,686.028870 662.888306,680.156982 662.888306,674.151855 
	C665.067261,674.151855 666.692749,674.151855 668.996887,674.151855 
	C668.996887,687.118652 668.996887,700.177490 668.975220,713.712219 
z"/>
<path fill="#FFFFFF" opacity="1.000000" stroke="none" 
	d="
M337.030304,690.774597 
	C343.560181,691.610168 350.063721,691.963257 356.974304,692.338440 
	C356.974304,685.885925 356.974304,680.138794 356.974304,674.203857 
	C358.756805,674.203857 360.157990,674.203857 361.780518,674.203857 
	C361.780518,687.697144 361.780518,701.096558 361.780518,714.748047 
	C360.320190,714.748047 358.918182,714.748047 357.141541,714.748047 
	C357.141541,709.058777 357.141541,703.308960 357.141541,697.281921 
	C350.381317,697.281921 343.985657,697.281921 337.190247,697.281921 
	C337.190247,702.928894 337.190247,708.665039 337.190247,714.762756 
	C335.079193,714.868103 333.339264,714.954956 331.294373,715.057007 
	C331.294373,701.352295 331.294373,687.824829 331.294373,674.148193 
	C333.074280,674.148193 334.700745,674.148193 337.003937,674.148193 
	C337.003937,679.460876 337.003937,684.876465 337.030304,690.774597 
z"/>
<path fill="#FFFFFF" opacity="1.000000" stroke="none" 
	d="
M299.000000,688.006348 
	C299.000000,683.197571 299.000000,678.887268 299.000000,674.036133 
	C304.799347,674.036133 310.440887,673.585510 315.975769,674.160706 
	C321.701447,674.755737 327.475983,682.330627 326.993225,687.535583 
	C326.403961,693.888733 320.244629,699.622986 313.465485,699.973877 
	C310.498779,700.127380 307.517487,699.999634 304.144440,699.999634 
	C304.144440,704.962280 304.144440,709.717163 304.144440,714.729492 
	C302.348053,714.729492 300.943909,714.729492 299.000000,714.729492 
	C299.000000,706.061035 299.000000,697.282898 299.000000,688.006348 
M308.456573,679.000000 
	C307.035736,679.076111 305.614929,679.152222 304.000000,679.238708 
	C304.000000,682.038269 304.000000,684.498596 304.000000,686.958984 
	C304.000000,689.552490 304.000000,692.146057 304.000000,694.999207 
	C306.940277,694.999207 309.436829,695.295593 311.838867,694.944885 
	C319.759125,693.788757 323.405609,688.197449 319.816589,682.756470 
	C317.531342,679.292114 313.448547,678.653381 308.456573,679.000000 
z"/>
<path fill="#FFFFFF" opacity="1.000000" stroke="none" 
	d="
M608.193176,674.002075 
	C612.340576,674.000122 616.005615,673.989868 619.670532,674.002197 
	C626.906311,674.026428 632.871521,679.158936 632.999939,685.457092 
	C633.174133,693.998657 628.271790,699.633301 620.252808,699.979309 
	C617.301636,700.106689 614.340332,699.999878 611.158081,699.999878 
	C611.158081,704.996460 611.158081,709.613892 611.158081,714.767578 
	C609.447693,714.849548 607.943604,714.921631 606.003540,715.014587 
	C606.003540,701.708862 605.980591,688.753967 606.075928,675.799988 
	C606.080383,675.197327 607.141663,674.602417 608.193176,674.002075 
M616.372681,679.000000 
	C614.635071,679.000000 612.897400,679.000000 611.262024,679.000000 
	C611.262024,684.684448 611.262024,689.734253 611.262024,694.993469 
	C613.811768,694.993469 616.182434,695.375977 618.373840,694.912109 
	C622.633972,694.010254 627.079712,692.793884 627.935364,687.560669 
	C628.659363,683.132080 625.225220,681.239380 622.005371,679.648438 
	C620.653503,678.980530 618.868286,679.189636 616.372681,679.000000 
z"/>
<path fill="#FFFFFF" opacity="1.000000" stroke="none" 
	d="
M703.759766,679.645996 
	C699.884460,685.636719 695.865417,691.126465 692.729919,697.081360 
	C691.480713,699.453857 692.115601,702.852783 692.019836,705.788574 
	C691.927795,708.609680 692.000000,711.436218 692.000000,714.629150 
	C690.401367,714.629150 688.899109,714.629150 686.286743,714.629150 
	C691.454468,698.192932 680.131897,687.110291 672.964905,674.467834 
	C677.474121,673.033386 679.928711,674.633179 681.884888,678.336670 
	C684.096252,682.523499 686.890808,686.402283 689.742493,690.905823 
	C692.820312,686.190491 695.765564,682.519775 697.757751,678.389404 
	C699.746887,674.265381 702.487610,673.213623 706.558838,674.252625 
	C705.695862,675.945374 704.833130,677.638428 703.759766,679.645996 
z"/>
<path fill="#FFFFFF" opacity="1.000000" stroke="none" 
	d="
M422.000000,699.996216 
	C422.000000,692.869995 422.000000,686.243286 422.000000,679.221680 
	C418.439362,679.221680 415.039001,679.221680 411.320312,679.221680 
	C411.320312,677.330933 411.320312,675.829529 411.320312,674.159424 
	C420.386597,674.159424 429.318817,674.159424 438.784912,674.159424 
	C438.848083,675.570801 438.915131,677.069214 439.000519,678.976440 
	C435.244934,678.976440 431.834503,678.976440 428.073822,678.976440 
	C428.073822,691.064148 428.073822,702.783020 428.073822,714.748047 
	C425.987244,714.748047 424.252380,714.748047 422.000000,714.748047 
	C422.000000,710.027832 422.000000,705.261780 422.000000,699.996216 
z"/>
<path fill="#000000" opacity="1.000000" stroke="none" 
	d="
M552.472412,682.991821 
	C554.781982,691.438538 549.946655,696.062866 538.209839,694.645203 
	C538.209839,689.606628 538.209839,684.540039 538.209839,679.092957 
	C543.256470,679.160950 548.486694,677.621887 552.472412,682.991821 
z"/>
<path fill="#000000" opacity="1.000000" stroke="none" 
	d="
M586.686829,703.000000 
	C582.426819,703.000000 578.628113,703.000000 574.055481,703.000000 
	C576.571289,697.134277 578.948242,691.592163 581.668823,685.248962 
	C582.897522,686.876221 583.983032,687.938965 584.616577,689.224426 
	C586.370972,692.784668 587.920776,696.445129 589.582886,700.051575 
	C590.835022,702.768433 589.357300,703.171997 586.686829,703.000000 
z"/>
<path fill="#000000" opacity="1.000000" stroke="none" 
	d="
M466.468445,679.164734 
	C476.952362,684.444702 478.486267,693.157959 475.977814,700.071838 
	C473.783600,706.119629 466.738098,710.412231 459.615356,709.999878 
	C454.137085,709.682739 447.453308,703.954407 445.984070,698.610657 
	C443.206909,688.509827 451.737610,675.907715 466.468445,679.164734 
z"/>
<path fill="#000000" opacity="1.000000" stroke="none" 
	d="
M397.867523,707.014404 
	C387.606812,715.318359 372.345734,705.872131 373.020325,693.978516 
	C373.517181,685.218567 378.636719,680.058167 387.748352,678.103027 
	C393.419678,676.886047 402.313843,683.940979 404.007965,690.340088 
	C405.829712,697.221130 403.122040,702.450745 397.867523,707.014404 
z"/>
<path fill="#000000" opacity="1.000000" stroke="none" 
	d="
M308.920471,679.000000 
	C313.448547,678.653381 317.531342,679.292114 319.816589,682.756470 
	C323.405609,688.197449 319.759125,693.788757 311.838867,694.944885 
	C309.436829,695.295593 306.940277,694.999207 304.000000,694.999207 
	C304.000000,692.146057 304.000000,689.552490 304.000000,686.958984 
	C304.000000,684.498596 304.000000,682.038269 304.000000,679.238708 
	C305.614929,679.152222 307.035736,679.076111 308.920471,679.000000 
z"/>
<path fill="#000000" opacity="1.000000" stroke="none" 
	d="
M616.826355,679.000000 
	C618.868286,679.189636 620.653503,678.980530 622.005371,679.648438 
	C625.225220,681.239380 628.659363,683.132080 627.935364,687.560669 
	C627.079712,692.793884 622.633972,694.010254 618.373840,694.912109 
	C616.182434,695.375977 613.811768,694.993469 611.262024,694.993469 
	C611.262024,689.734253 611.262024,684.684448 611.262024,679.000000 
	C612.897400,679.000000 614.635071,679.000000 616.826355,679.000000 
z"/>
</svg>